ISO-10303-21;
HEADER;
FILE_DESCRIPTION(('FreeCAD Model'),'2;1');
FILE_NAME('Open CASCADE Shape Model','2026-07-26T16:31:14',(''),(''),
  'Open CASCADE STEP processor 7.8','FreeCAD','Unknown');
FILE_SCHEMA(('AUTOMOTIVE_DESIGN { 1 0 10303 214 1 1 1 1 }'));
ENDSEC;
DATA;
#1 = APPLICATION_PROTOCOL_DEFINITION('international standard',
  'automotive_design',2000,#2);
#2 = APPLICATION_CONTEXT(
  'core data for automotive mechanical design processes');
#3 = SHAPE_DEFINITION_REPRESENTATION(#4,#10);
#4 = PRODUCT_DEFINITION_SHAPE('','',#5);
#5 = PRODUCT_DEFINITION('design','',#6,#9);
#6 = PRODUCT_DEFINITION_FORMATION('','',#7);
#7 = PRODUCT('Body','Body','',(#8));
#8 = PRODUCT_CONTEXT('',#2,'mechanical');
#9 = PRODUCT_DEFINITION_CONTEXT('part definition',#2,'design');
#10 = ADVANCED_BREP_SHAPE_REPRESENTATION('',(#11,#15),#1027);
#11 = AXIS2_PLACEMENT_3D('',#12,#13,#14);
#12 = CARTESIAN_POINT('',(0.,0.,0.));
#13 = DIRECTION('',(0.,0.,1.));
#14 = DIRECTION('',(1.,0.,-0.));
#15 = MANIFOLD_SOLID_BREP('',#16);
#16 = CLOSED_SHELL('',(#17,#186,#212,#254,#310,#335,#391,#447,#472,#497,
    #553,#609,#634,#659,#715,#771,#796,#821,#870,#879,#944,#956,#968,
    #980,#992,#1018));
#17 = ADVANCED_FACE('',(#18),#181,.F.);
#18 = FACE_BOUND('',#19,.F.);
#19 = EDGE_LOOP('',(#20,#30,#37,#38,#47,#55,#64,#72,#81,#89,#98,#106,
    #115,#123,#132,#140,#149,#157,#166,#174));
#20 = ORIENTED_EDGE('',*,*,#21,.F.);
#21 = EDGE_CURVE('',#22,#24,#26,.T.);
#22 = VERTEX_POINT('',#23);
#23 = CARTESIAN_POINT('',(3.3,2.065014825803E-15,9.3));
#24 = VERTEX_POINT('',#25);
#25 = CARTESIAN_POINT('',(3.3,1.110223024625E-15,5.));
#26 = LINE('',#27,#28);
#27 = CARTESIAN_POINT('',(3.3,2.153832667773E-15,9.7));
#28 = VECTOR('',#29,1.);
#29 = DIRECTION('',(0.,-2.22044604925E-16,-1.));
#30 = ORIENTED_EDGE('',*,*,#31,.T.);
#31 = EDGE_CURVE('',#22,#22,#32,.T.);
#32 = CIRCLE('',#33,3.3);
#33 = AXIS2_PLACEMENT_3D('',#34,#35,#36);
#34 = CARTESIAN_POINT('',(0.,2.065014825803E-15,9.3));
#35 = DIRECTION('',(0.,-2.22044604925E-16,-1.));
#36 = DIRECTION('',(1.,0.,0.));
#37 = ORIENTED_EDGE('',*,*,#21,.T.);
#38 = ORIENTED_EDGE('',*,*,#39,.F.);
#39 = EDGE_CURVE('',#40,#24,#42,.T.);
#40 = VERTEX_POINT('',#41);
#41 = CARTESIAN_POINT('',(3.144837038703,1.,5.));
#42 = CIRCLE('',#43,3.3);
#43 = AXIS2_PLACEMENT_3D('',#44,#45,#46);
#44 = CARTESIAN_POINT('',(0.,1.110223024625E-15,5.));
#45 = DIRECTION('',(0.,-2.22044604925E-16,-1.));
#46 = DIRECTION('',(1.,0.,0.));
#47 = ORIENTED_EDGE('',*,*,#48,.T.);
#48 = EDGE_CURVE('',#40,#49,#51,.T.);
#49 = VERTEX_POINT('',#50);
#50 = CARTESIAN_POINT('',(3.144837038703,1.,-1.110223024625E-16));
#51 = LINE('',#52,#53);
#52 = CARTESIAN_POINT('',(3.144837038703,1.,9.7));
#53 = VECTOR('',#54,1.);
#54 = DIRECTION('',(-0.,-2.22044604925E-16,-1.));
#55 = ORIENTED_EDGE('',*,*,#56,.F.);
#56 = EDGE_CURVE('',#57,#49,#59,.T.);
#57 = VERTEX_POINT('',#58);
#58 = CARTESIAN_POINT('',(1.,3.144837038703,-3.491470489062E-16));
#59 = CIRCLE('',#60,3.3);
#60 = AXIS2_PLACEMENT_3D('',#61,#62,#63);
#61 = CARTESIAN_POINT('',(0.,0.,0.));
#62 = DIRECTION('',(0.,-2.22044604925E-16,-1.));
#63 = DIRECTION('',(1.,0.,0.));
#64 = ORIENTED_EDGE('',*,*,#65,.F.);
#65 = EDGE_CURVE('',#66,#57,#68,.T.);
#66 = VERTEX_POINT('',#67);
#67 = CARTESIAN_POINT('',(1.,3.144837038703,5.));
#68 = LINE('',#69,#70);
#69 = CARTESIAN_POINT('',(1.,3.144837038703,9.7));
#70 = VECTOR('',#71,1.);
#71 = DIRECTION('',(-0.,-2.22044604925E-16,-1.));
#72 = ORIENTED_EDGE('',*,*,#73,.F.);
#73 = EDGE_CURVE('',#74,#66,#76,.T.);
#74 = VERTEX_POINT('',#75);
#75 = CARTESIAN_POINT('',(-1.,3.144837038703,5.));
#76 = CIRCLE('',#77,3.3);
#77 = AXIS2_PLACEMENT_3D('',#78,#79,#80);
#78 = CARTESIAN_POINT('',(0.,1.110223024625E-15,5.));
#79 = DIRECTION('',(0.,-2.22044604925E-16,-1.));
#80 = DIRECTION('',(1.,0.,0.));
#81 = ORIENTED_EDGE('',*,*,#82,.T.);
#82 = EDGE_CURVE('',#74,#83,#85,.T.);
#83 = VERTEX_POINT('',#84);
#84 = CARTESIAN_POINT('',(-1.,3.144837038703,-3.491470489062E-16));
#85 = LINE('',#86,#87);
#86 = CARTESIAN_POINT('',(-1.,3.144837038703,9.7));
#87 = VECTOR('',#88,1.);
#88 = DIRECTION('',(-0.,-2.22044604925E-16,-1.));
#89 = ORIENTED_EDGE('',*,*,#90,.F.);
#90 = EDGE_CURVE('',#91,#83,#93,.T.);
#91 = VERTEX_POINT('',#92);
#92 = CARTESIAN_POINT('',(-3.144837038703,1.,-1.110223024625E-16));
#93 = CIRCLE('',#94,3.3);
#94 = AXIS2_PLACEMENT_3D('',#95,#96,#97);
#95 = CARTESIAN_POINT('',(0.,0.,0.));
#96 = DIRECTION('',(0.,-2.22044604925E-16,-1.));
#97 = DIRECTION('',(1.,0.,0.));
#98 = ORIENTED_EDGE('',*,*,#99,.F.);
#99 = EDGE_CURVE('',#100,#91,#102,.T.);
#100 = VERTEX_POINT('',#101);
#101 = CARTESIAN_POINT('',(-3.144837038703,1.,5.));
#102 = LINE('',#103,#104);
#103 = CARTESIAN_POINT('',(-3.144837038703,1.,9.7));
#104 = VECTOR('',#105,1.);
#105 = DIRECTION('',(-0.,-2.22044604925E-16,-1.));
#106 = ORIENTED_EDGE('',*,*,#107,.F.);
#107 = EDGE_CURVE('',#108,#100,#110,.T.);
#108 = VERTEX_POINT('',#109);
#109 = CARTESIAN_POINT('',(-3.144837038703,-1.,5.));
#110 = CIRCLE('',#111,3.3);
#111 = AXIS2_PLACEMENT_3D('',#112,#113,#114);
#112 = CARTESIAN_POINT('',(0.,1.110223024625E-15,5.));
#113 = DIRECTION('',(0.,-2.22044604925E-16,-1.));
#114 = DIRECTION('',(1.,0.,0.));
#115 = ORIENTED_EDGE('',*,*,#116,.T.);
#116 = EDGE_CURVE('',#108,#117,#119,.T.);
#117 = VERTEX_POINT('',#118);
#118 = CARTESIAN_POINT('',(-3.144837038703,-1.,1.110223024625E-16));
#119 = LINE('',#120,#121);
#120 = CARTESIAN_POINT('',(-3.144837038703,-1.,9.7));
#121 = VECTOR('',#122,1.);
#122 = DIRECTION('',(-0.,-2.22044604925E-16,-1.));
#123 = ORIENTED_EDGE('',*,*,#124,.F.);
#124 = EDGE_CURVE('',#125,#117,#127,.T.);
#125 = VERTEX_POINT('',#126);
#126 = CARTESIAN_POINT('',(-1.,-3.144837038703,3.491470489062E-16));
#127 = CIRCLE('',#128,3.3);
#128 = AXIS2_PLACEMENT_3D('',#129,#130,#131);
#129 = CARTESIAN_POINT('',(0.,0.,0.));
#130 = DIRECTION('',(0.,-2.22044604925E-16,-1.));
#131 = DIRECTION('',(1.,0.,0.));
#132 = ORIENTED_EDGE('',*,*,#133,.F.);
#133 = EDGE_CURVE('',#134,#125,#136,.T.);
#134 = VERTEX_POINT('',#135);
#135 = CARTESIAN_POINT('',(-1.,-3.144837038703,5.));
#136 = LINE('',#137,#138);
#137 = CARTESIAN_POINT('',(-1.,-3.144837038703,9.7));
#138 = VECTOR('',#139,1.);
#139 = DIRECTION('',(-0.,-2.22044604925E-16,-1.));
#140 = ORIENTED_EDGE('',*,*,#141,.F.);
#141 = EDGE_CURVE('',#142,#134,#144,.T.);
#142 = VERTEX_POINT('',#143);
#143 = CARTESIAN_POINT('',(1.,-3.144837038703,5.));
#144 = CIRCLE('',#145,3.3);
#145 = AXIS2_PLACEMENT_3D('',#146,#147,#148);
#146 = CARTESIAN_POINT('',(0.,1.110223024625E-15,5.));
#147 = DIRECTION('',(0.,-2.22044604925E-16,-1.));
#148 = DIRECTION('',(1.,0.,0.));
#149 = ORIENTED_EDGE('',*,*,#150,.T.);
#150 = EDGE_CURVE('',#142,#151,#153,.T.);
#151 = VERTEX_POINT('',#152);
#152 = CARTESIAN_POINT('',(1.,-3.144837038703,3.491470489062E-16));
#153 = LINE('',#154,#155);
#154 = CARTESIAN_POINT('',(1.,-3.144837038703,9.7));
#155 = VECTOR('',#156,1.);
#156 = DIRECTION('',(-0.,-2.22044604925E-16,-1.));
#157 = ORIENTED_EDGE('',*,*,#158,.F.);
#158 = EDGE_CURVE('',#159,#151,#161,.T.);
#159 = VERTEX_POINT('',#160);
#160 = CARTESIAN_POINT('',(3.144837038703,-1.,1.110223024625E-16));
#161 = CIRCLE('',#162,3.3);
#162 = AXIS2_PLACEMENT_3D('',#163,#164,#165);
#163 = CARTESIAN_POINT('',(0.,0.,0.));
#164 = DIRECTION('',(0.,-2.22044604925E-16,-1.));
#165 = DIRECTION('',(1.,0.,0.));
#166 = ORIENTED_EDGE('',*,*,#167,.F.);
#167 = EDGE_CURVE('',#168,#159,#170,.T.);
#168 = VERTEX_POINT('',#169);
#169 = CARTESIAN_POINT('',(3.144837038703,-1.,5.));
#170 = LINE('',#171,#172);
#171 = CARTESIAN_POINT('',(3.144837038703,-1.,9.7));
#172 = VECTOR('',#173,1.);
#173 = DIRECTION('',(-0.,-2.22044604925E-16,-1.));
#174 = ORIENTED_EDGE('',*,*,#175,.F.);
#175 = EDGE_CURVE('',#24,#168,#176,.T.);
#176 = CIRCLE('',#177,3.3);
#177 = AXIS2_PLACEMENT_3D('',#178,#179,#180);
#178 = CARTESIAN_POINT('',(0.,1.110223024625E-15,5.));
#179 = DIRECTION('',(0.,-2.22044604925E-16,-1.));
#180 = DIRECTION('',(1.,0.,0.));
#181 = CYLINDRICAL_SURFACE('',#182,3.3);
#182 = AXIS2_PLACEMENT_3D('',#183,#184,#185);
#183 = CARTESIAN_POINT('',(0.,2.153832667773E-15,9.7));
#184 = DIRECTION('',(-0.,-2.22044604925E-16,-1.));
#185 = DIRECTION('',(1.,0.,0.));
#186 = ADVANCED_FACE('',(#187),#207,.F.);
#187 = FACE_BOUND('',#188,.T.);
#188 = EDGE_LOOP('',(#189,#198,#199,#200));
#189 = ORIENTED_EDGE('',*,*,#190,.F.);
#190 = EDGE_CURVE('',#22,#191,#193,.T.);
#191 = VERTEX_POINT('',#192);
#192 = CARTESIAN_POINT('',(2.9,2.153832667773E-15,9.7));
#193 = CIRCLE('',#194,0.4);
#194 = AXIS2_PLACEMENT_3D('',#195,#196,#197);
#195 = CARTESIAN_POINT('',(2.9,2.065014825803E-15,9.3));
#196 = DIRECTION('',(0.,-1.,2.22044604925E-16));
#197 = DIRECTION('',(1.,0.,0.));
#198 = ORIENTED_EDGE('',*,*,#31,.F.);
#199 = ORIENTED_EDGE('',*,*,#190,.T.);
#200 = ORIENTED_EDGE('',*,*,#201,.T.);
#201 = EDGE_CURVE('',#191,#191,#202,.T.);
#202 = CIRCLE('',#203,2.9);
#203 = AXIS2_PLACEMENT_3D('',#204,#205,#206);
#204 = CARTESIAN_POINT('',(0.,2.153832667773E-15,9.7));
#205 = DIRECTION('',(0.,-2.22044604925E-16,-1.));
#206 = DIRECTION('',(1.,0.,0.));
#207 = TOROIDAL_SURFACE('',#208,2.9,0.4);
#208 = AXIS2_PLACEMENT_3D('',#209,#210,#211);
#209 = CARTESIAN_POINT('',(0.,2.065014825803E-15,9.3));
#210 = DIRECTION('',(0.,2.22044604925E-16,1.));
#211 = DIRECTION('',(1.,0.,0.));
#212 = ADVANCED_FACE('',(#213),#249,.F.);
#213 = FACE_BOUND('',#214,.F.);
#214 = EDGE_LOOP('',(#215,#223,#224,#225,#233,#242));
#215 = ORIENTED_EDGE('',*,*,#216,.F.);
#216 = EDGE_CURVE('',#40,#217,#219,.T.);
#217 = VERTEX_POINT('',#218);
#218 = CARTESIAN_POINT('',(3.872983346207,1.,5.));
#219 = LINE('',#220,#221);
#220 = CARTESIAN_POINT('',(1.,1.,5.));
#221 = VECTOR('',#222,1.);
#222 = DIRECTION('',(1.,0.,0.));
#223 = ORIENTED_EDGE('',*,*,#39,.T.);
#224 = ORIENTED_EDGE('',*,*,#175,.T.);
#225 = ORIENTED_EDGE('',*,*,#226,.F.);
#226 = EDGE_CURVE('',#227,#168,#229,.T.);
#227 = VERTEX_POINT('',#228);
#228 = CARTESIAN_POINT('',(3.872983346207,-1.,5.));
#229 = LINE('',#230,#231);
#230 = CARTESIAN_POINT('',(7.,-1.,5.));
#231 = VECTOR('',#232,1.);
#232 = DIRECTION('',(-1.,0.,0.));
#233 = ORIENTED_EDGE('',*,*,#234,.T.);
#234 = EDGE_CURVE('',#227,#235,#237,.T.);
#235 = VERTEX_POINT('',#236);
#236 = CARTESIAN_POINT('',(4.,1.110223024625E-15,5.));
#237 = CIRCLE('',#238,4.);
#238 = AXIS2_PLACEMENT_3D('',#239,#240,#241);
#239 = CARTESIAN_POINT('',(0.,1.110223024625E-15,5.));
#240 = DIRECTION('',(-0.,2.22044604925E-16,1.));
#241 = DIRECTION('',(1.,0.,0.));
#242 = ORIENTED_EDGE('',*,*,#243,.T.);
#243 = EDGE_CURVE('',#235,#217,#244,.T.);
#244 = CIRCLE('',#245,4.);
#245 = AXIS2_PLACEMENT_3D('',#246,#247,#248);
#246 = CARTESIAN_POINT('',(0.,1.110223024625E-15,5.));
#247 = DIRECTION('',(-0.,2.22044604925E-16,1.));
#248 = DIRECTION('',(1.,0.,0.));
#249 = PLANE('',#250);
#250 = AXIS2_PLACEMENT_3D('',#251,#252,#253);
#251 = CARTESIAN_POINT('',(0.,0.,5.));
#252 = DIRECTION('',(0.,0.,1.));
#253 = DIRECTION('',(1.,0.,0.));
#254 = ADVANCED_FACE('',(#255),#305,.F.);
#255 = FACE_BOUND('',#256,.F.);
#256 = EDGE_LOOP('',(#257,#265,#297,#303,#304));
#257 = ORIENTED_EDGE('',*,*,#258,.F.);
#258 = EDGE_CURVE('',#259,#159,#261,.T.);
#259 = VERTEX_POINT('',#260);
#260 = CARTESIAN_POINT('',(3.872983346207,-1.,1.110223024625E-16));
#261 = LINE('',#262,#263);
#262 = CARTESIAN_POINT('',(7.,-1.,0.));
#263 = VECTOR('',#264,1.);
#264 = DIRECTION('',(-1.,0.,0.));
#265 = ORIENTED_EDGE('',*,*,#266,.T.);
#266 = EDGE_CURVE('',#259,#267,#269,.T.);
#267 = VERTEX_POINT('',#268);
#268 = CARTESIAN_POINT('',(3.872983346207,-1.,0.8));
#269 = B_SPLINE_CURVE_WITH_KNOTS('',6,(#270,#271,#272,#273,#274,#275,
    #276,#277,#278,#279,#280,#281,#282,#283,#284,#285,#286,#287,#288,
    #289,#290,#291,#292,#293,#294,#295,#296),.UNSPECIFIED.,.F.,.F.,(7,5,
    5,5,5,7),(0.,0.217371021873,0.499993446131,0.691290474527,
    0.78326542748,1.),.UNSPECIFIED.);
#270 = CARTESIAN_POINT('',(3.872983346207,-1.,2.22044604925E-16));
#271 = CARTESIAN_POINT('',(3.919876832614,-1.,2.22044604925E-16));
#272 = CARTESIAN_POINT('',(3.966737827784,-1.,6.184568950633E-03));
#273 = CARTESIAN_POINT('',(4.012484685584,-1.,1.855924833997E-02));
#274 = CARTESIAN_POINT('',(4.056047768302,-1.,3.689218592082E-02));
#275 = CARTESIAN_POINT('',(4.096433903056,-1.,6.07286368625E-02));
#276 = CARTESIAN_POINT('',(4.18006156024,-1.,0.126690631025));
#277 = CARTESIAN_POINT('',(4.220537939838,-1.,0.17217194677));
#278 = CARTESIAN_POINT('',(4.252323556205,-1.,0.224390449022));
#279 = CARTESIAN_POINT('',(4.274015809426,-1.,0.281339779275));
#280 = CARTESIAN_POINT('',(4.284857088926,-1.,0.340677585193));
#281 = CARTESIAN_POINT('',(4.284857035601,-1.,0.440153574721));
#282 = CARTESIAN_POINT('',(4.279890217172,-1.,0.480309231422));
#283 = CARTESIAN_POINT('',(4.269955304264,-1.,0.519727715473));
#284 = CARTESIAN_POINT('',(4.255208527002,-1.,0.557678665951));
#285 = CARTESIAN_POINT('',(4.235949779607,-1.,0.593478652512));
#286 = CARTESIAN_POINT('',(4.201386473335,-1.,0.64241949844));
#287 = CARTESIAN_POINT('',(4.189220010457,-1.,0.657674963566));
#288 = CARTESIAN_POINT('',(4.176157175288,-1.,0.672228737124));
#289 = CARTESIAN_POINT('',(4.162251438284,-1.,0.686019687947));
#290 = CARTESIAN_POINT('',(4.147561933228,-1.,0.698992215393));
#291 = CARTESIAN_POINT('',(4.095844121331,-1.,0.739618825788));
#292 = CARTESIAN_POINT('',(4.055538935468,-1.,0.763321605016));
#293 = CARTESIAN_POINT('',(4.012083975312,-1.,0.781548982262));
#294 = CARTESIAN_POINT('',(3.966464202696,-1.,0.793851485025));
#295 = CARTESIAN_POINT('',(3.919739940276,-1.,0.8));
#296 = CARTESIAN_POINT('',(3.872983346207,-1.,0.8));
#297 = ORIENTED_EDGE('',*,*,#298,.T.);
#298 = EDGE_CURVE('',#267,#227,#299,.T.);
#299 = LINE('',#300,#301);
#300 = CARTESIAN_POINT('',(3.872983346207,-1.,0.8));
#301 = VECTOR('',#302,1.);
#302 = DIRECTION('',(0.,2.22044604925E-16,1.));
#303 = ORIENTED_EDGE('',*,*,#226,.T.);
#304 = ORIENTED_EDGE('',*,*,#167,.T.);
#305 = PLANE('',#306);
#306 = AXIS2_PLACEMENT_3D('',#307,#308,#309);
#307 = CARTESIAN_POINT('',(7.,-1.,0.));
#308 = DIRECTION('',(0.,-1.,0.));
#309 = DIRECTION('',(-1.,0.,0.));
#310 = ADVANCED_FACE('',(#311),#330,.T.);
#311 = FACE_BOUND('',#312,.T.);
#312 = EDGE_LOOP('',(#313,#314,#323,#329));
#313 = ORIENTED_EDGE('',*,*,#258,.F.);
#314 = ORIENTED_EDGE('',*,*,#315,.T.);
#315 = EDGE_CURVE('',#259,#316,#318,.T.);
#316 = VERTEX_POINT('',#317);
#317 = CARTESIAN_POINT('',(1.,-3.872983346207,4.299875284949E-16));
#318 = CIRCLE('',#319,4.);
#319 = AXIS2_PLACEMENT_3D('',#320,#321,#322);
#320 = CARTESIAN_POINT('',(0.,0.,0.));
#321 = DIRECTION('',(0.,-2.22044604925E-16,-1.));
#322 = DIRECTION('',(1.,0.,0.));
#323 = ORIENTED_EDGE('',*,*,#324,.F.);
#324 = EDGE_CURVE('',#151,#316,#325,.T.);
#325 = LINE('',#326,#327);
#326 = CARTESIAN_POINT('',(1.,-1.,0.));
#327 = VECTOR('',#328,1.);
#328 = DIRECTION('',(0.,-1.,0.));
#329 = ORIENTED_EDGE('',*,*,#158,.F.);
#330 = PLANE('',#331);
#331 = AXIS2_PLACEMENT_3D('',#332,#333,#334);
#332 = CARTESIAN_POINT('',(0.,0.,0.));
#333 = DIRECTION('',(-0.,-2.22044604925E-16,-1.));
#334 = DIRECTION('',(1.,0.,0.));
#335 = ADVANCED_FACE('',(#336),#386,.F.);
#336 = FACE_BOUND('',#337,.F.);
#337 = EDGE_LOOP('',(#338,#346,#347,#348,#356));
#338 = ORIENTED_EDGE('',*,*,#339,.F.);
#339 = EDGE_CURVE('',#49,#340,#342,.T.);
#340 = VERTEX_POINT('',#341);
#341 = CARTESIAN_POINT('',(3.872983346207,1.,-1.110223024625E-16));
#342 = LINE('',#343,#344);
#343 = CARTESIAN_POINT('',(1.,1.,0.));
#344 = VECTOR('',#345,1.);
#345 = DIRECTION('',(1.,0.,0.));
#346 = ORIENTED_EDGE('',*,*,#48,.F.);
#347 = ORIENTED_EDGE('',*,*,#216,.T.);
#348 = ORIENTED_EDGE('',*,*,#349,.F.);
#349 = EDGE_CURVE('',#350,#217,#352,.T.);
#350 = VERTEX_POINT('',#351);
#351 = CARTESIAN_POINT('',(3.872983346207,1.,0.8));
#352 = LINE('',#353,#354);
#353 = CARTESIAN_POINT('',(3.872983346207,1.,0.8));
#354 = VECTOR('',#355,1.);
#355 = DIRECTION('',(0.,2.22044604925E-16,1.));
#356 = ORIENTED_EDGE('',*,*,#357,.F.);
#357 = EDGE_CURVE('',#340,#350,#358,.T.);
#358 = B_SPLINE_CURVE_WITH_KNOTS('',6,(#359,#360,#361,#362,#363,#364,
    #365,#366,#367,#368,#369,#370,#371,#372,#373,#374,#375,#376,#377,
    #378,#379,#380,#381,#382,#383,#384,#385),.UNSPECIFIED.,.F.,.F.,(7,5,
    5,5,5,7),(0.,0.217371021873,0.499993446132,0.691290474524,
    0.783265427476,1.),.UNSPECIFIED.);
#359 = CARTESIAN_POINT('',(3.872983346207,1.,-2.22044604925E-16));
#360 = CARTESIAN_POINT('',(3.919876832614,1.,-2.22044604925E-16));
#361 = CARTESIAN_POINT('',(3.966737827784,1.,6.184568950632E-03));
#362 = CARTESIAN_POINT('',(4.012484685584,1.,1.855924833997E-02));
#363 = CARTESIAN_POINT('',(4.056047768302,1.,3.689218592082E-02));
#364 = CARTESIAN_POINT('',(4.096433903056,1.,6.07286368625E-02));
#365 = CARTESIAN_POINT('',(4.18006156024,1.,0.126690631025));
#366 = CARTESIAN_POINT('',(4.220537939838,1.,0.17217194677));
#367 = CARTESIAN_POINT('',(4.252323556205,1.,0.224390449022));
#368 = CARTESIAN_POINT('',(4.274015809426,1.,0.281339779276));
#369 = CARTESIAN_POINT('',(4.284857088926,1.,0.340677585193));
#370 = CARTESIAN_POINT('',(4.284857035601,1.,0.44015357472));
#371 = CARTESIAN_POINT('',(4.279890217172,1.,0.480309231421));
#372 = CARTESIAN_POINT('',(4.269955304264,1.,0.519727715471));
#373 = CARTESIAN_POINT('',(4.255208527003,1.,0.557678665948));
#374 = CARTESIAN_POINT('',(4.235949779609,1.,0.593478652509));
#375 = CARTESIAN_POINT('',(4.201386473338,1.,0.642419498437));
#376 = CARTESIAN_POINT('',(4.18922001046,1.,0.657674963563));
#377 = CARTESIAN_POINT('',(4.176157175291,1.,0.672228737121));
#378 = CARTESIAN_POINT('',(4.162251438288,1.,0.686019687944));
#379 = CARTESIAN_POINT('',(4.147561933231,1.,0.69899221539));
#380 = CARTESIAN_POINT('',(4.095844121335,1.,0.739618825787));
#381 = CARTESIAN_POINT('',(4.055538935471,1.,0.763321605015));
#382 = CARTESIAN_POINT('',(4.012083975314,1.,0.781548982261));
#383 = CARTESIAN_POINT('',(3.966464202697,1.,0.793851485025));
#384 = CARTESIAN_POINT('',(3.919739940277,1.,0.8));
#385 = CARTESIAN_POINT('',(3.872983346207,1.,0.8));
#386 = PLANE('',#387);
#387 = AXIS2_PLACEMENT_3D('',#388,#389,#390);
#388 = CARTESIAN_POINT('',(1.,1.,0.));
#389 = DIRECTION('',(0.,1.,0.));
#390 = DIRECTION('',(1.,0.,0.));
#391 = ADVANCED_FACE('',(#392),#442,.F.);
#392 = FACE_BOUND('',#393,.F.);
#393 = EDGE_LOOP('',(#394,#395,#396,#404,#412));
#394 = ORIENTED_EDGE('',*,*,#324,.F.);
#395 = ORIENTED_EDGE('',*,*,#150,.F.);
#396 = ORIENTED_EDGE('',*,*,#397,.T.);
#397 = EDGE_CURVE('',#142,#398,#400,.T.);
#398 = VERTEX_POINT('',#399);
#399 = CARTESIAN_POINT('',(1.,-3.872983346207,5.));
#400 = LINE('',#401,#402);
#401 = CARTESIAN_POINT('',(1.,-1.,5.));
#402 = VECTOR('',#403,1.);
#403 = DIRECTION('',(0.,-1.,0.));
#404 = ORIENTED_EDGE('',*,*,#405,.F.);
#405 = EDGE_CURVE('',#406,#398,#408,.T.);
#406 = VERTEX_POINT('',#407);
#407 = CARTESIAN_POINT('',(1.,-3.872983346207,0.8));
#408 = LINE('',#409,#410);
#409 = CARTESIAN_POINT('',(1.,-3.872983346207,0.8));
#410 = VECTOR('',#411,1.);
#411 = DIRECTION('',(0.,2.22044604925E-16,1.));
#412 = ORIENTED_EDGE('',*,*,#413,.F.);
#413 = EDGE_CURVE('',#316,#406,#414,.T.);
#414 = B_SPLINE_CURVE_WITH_KNOTS('',6,(#415,#416,#417,#418,#419,#420,
    #421,#422,#423,#424,#425,#426,#427,#428,#429,#430,#431,#432,#433,
    #434,#435,#436,#437,#438,#439,#440,#441),.UNSPECIFIED.,.F.,.F.,(7,5,
    5,5,5,7),(0.,0.217371021873,0.499993446131,0.691290474529,
    0.783265427481,1.),.UNSPECIFIED.);
#415 = CARTESIAN_POINT('',(1.,-3.872983346207,8.881784197001E-16));
#416 = CARTESIAN_POINT('',(1.,-3.919876832614,8.881784197001E-16));
#417 = CARTESIAN_POINT('',(1.,-3.966737827784,6.184568950634E-03));
#418 = CARTESIAN_POINT('',(1.,-4.012484685584,1.855924833997E-02));
#419 = CARTESIAN_POINT('',(1.,-4.056047768302,3.689218592082E-02));
#420 = CARTESIAN_POINT('',(1.,-4.096433903056,6.072863686251E-02));
#421 = CARTESIAN_POINT('',(1.,-4.18006156024,0.126690631025));
#422 = CARTESIAN_POINT('',(1.,-4.220537939838,0.17217194677));
#423 = CARTESIAN_POINT('',(1.,-4.252323556205,0.224390449022));
#424 = CARTESIAN_POINT('',(1.,-4.274015809426,0.281339779276));
#425 = CARTESIAN_POINT('',(1.,-4.284857088926,0.340677585193));
#426 = CARTESIAN_POINT('',(1.,-4.284857035601,0.440153574721));
#427 = CARTESIAN_POINT('',(1.,-4.279890217172,0.480309231423));
#428 = CARTESIAN_POINT('',(1.,-4.269955304263,0.519727715474));
#429 = CARTESIAN_POINT('',(1.,-4.255208527002,0.557678665953));
#430 = CARTESIAN_POINT('',(1.,-4.235949779606,0.593478652514));
#431 = CARTESIAN_POINT('',(1.,-4.201386473334,0.642419498442));
#432 = CARTESIAN_POINT('',(1.,-4.189220010456,0.657674963568));
#433 = CARTESIAN_POINT('',(1.,-4.176157175286,0.672228737126));
#434 = CARTESIAN_POINT('',(1.,-4.162251438283,0.686019687948));
#435 = CARTESIAN_POINT('',(1.,-4.147561933226,0.698992215394));
#436 = CARTESIAN_POINT('',(1.,-4.09584412133,0.739618825789));
#437 = CARTESIAN_POINT('',(1.,-4.055538935467,0.763321605016));
#438 = CARTESIAN_POINT('',(1.,-4.012083975311,0.781548982262));
#439 = CARTESIAN_POINT('',(1.,-3.966464202695,0.793851485025));
#440 = CARTESIAN_POINT('',(1.,-3.919739940276,0.8));
#441 = CARTESIAN_POINT('',(1.,-3.872983346207,0.8));
#442 = PLANE('',#443);
#443 = AXIS2_PLACEMENT_3D('',#444,#445,#446);
#444 = CARTESIAN_POINT('',(1.,-1.,0.));
#445 = DIRECTION('',(1.,0.,0.));
#446 = DIRECTION('',(0.,-1.,0.));
#447 = ADVANCED_FACE('',(#448),#467,.T.);
#448 = FACE_BOUND('',#449,.T.);
#449 = EDGE_LOOP('',(#450,#459,#460,#461));
#450 = ORIENTED_EDGE('',*,*,#451,.T.);
#451 = EDGE_CURVE('',#452,#340,#454,.T.);
#452 = VERTEX_POINT('',#453);
#453 = CARTESIAN_POINT('',(1.,3.872983346207,-4.299875284949E-16));
#454 = CIRCLE('',#455,4.);
#455 = AXIS2_PLACEMENT_3D('',#456,#457,#458);
#456 = CARTESIAN_POINT('',(0.,0.,0.));
#457 = DIRECTION('',(0.,-2.22044604925E-16,-1.));
#458 = DIRECTION('',(1.,0.,0.));
#459 = ORIENTED_EDGE('',*,*,#339,.F.);
#460 = ORIENTED_EDGE('',*,*,#56,.F.);
#461 = ORIENTED_EDGE('',*,*,#462,.F.);
#462 = EDGE_CURVE('',#452,#57,#463,.T.);
#463 = LINE('',#464,#465);
#464 = CARTESIAN_POINT('',(1.,7.,0.));
#465 = VECTOR('',#466,1.);
#466 = DIRECTION('',(0.,-1.,0.));
#467 = PLANE('',#468);
#468 = AXIS2_PLACEMENT_3D('',#469,#470,#471);
#469 = CARTESIAN_POINT('',(0.,0.,0.));
#470 = DIRECTION('',(-0.,-2.22044604925E-16,-1.));
#471 = DIRECTION('',(1.,0.,0.));
#472 = ADVANCED_FACE('',(#473),#492,.F.);
#473 = FACE_BOUND('',#474,.F.);
#474 = EDGE_LOOP('',(#475,#476,#484,#491));
#475 = ORIENTED_EDGE('',*,*,#141,.T.);
#476 = ORIENTED_EDGE('',*,*,#477,.F.);
#477 = EDGE_CURVE('',#478,#134,#480,.T.);
#478 = VERTEX_POINT('',#479);
#479 = CARTESIAN_POINT('',(-1.,-3.872983346207,5.));
#480 = LINE('',#481,#482);
#481 = CARTESIAN_POINT('',(-1.,-7.,5.));
#482 = VECTOR('',#483,1.);
#483 = DIRECTION('',(0.,1.,0.));
#484 = ORIENTED_EDGE('',*,*,#485,.T.);
#485 = EDGE_CURVE('',#478,#398,#486,.T.);
#486 = CIRCLE('',#487,4.);
#487 = AXIS2_PLACEMENT_3D('',#488,#489,#490);
#488 = CARTESIAN_POINT('',(0.,1.110223024625E-15,5.));
#489 = DIRECTION('',(-0.,2.22044604925E-16,1.));
#490 = DIRECTION('',(1.,0.,0.));
#491 = ORIENTED_EDGE('',*,*,#397,.F.);
#492 = PLANE('',#493);
#493 = AXIS2_PLACEMENT_3D('',#494,#495,#496);
#494 = CARTESIAN_POINT('',(0.,0.,5.));
#495 = DIRECTION('',(0.,0.,1.));
#496 = DIRECTION('',(1.,0.,0.));
#497 = ADVANCED_FACE('',(#498),#548,.F.);
#498 = FACE_BOUND('',#499,.F.);
#499 = EDGE_LOOP('',(#500,#501,#533,#541,#547));
#500 = ORIENTED_EDGE('',*,*,#462,.F.);
#501 = ORIENTED_EDGE('',*,*,#502,.T.);
#502 = EDGE_CURVE('',#452,#503,#505,.T.);
#503 = VERTEX_POINT('',#504);
#504 = CARTESIAN_POINT('',(1.,3.872983346207,0.8));
#505 = B_SPLINE_CURVE_WITH_KNOTS('',6,(#506,#507,#508,#509,#510,#511,
    #512,#513,#514,#515,#516,#517,#518,#519,#520,#521,#522,#523,#524,
    #525,#526,#527,#528,#529,#530,#531,#532),.UNSPECIFIED.,.F.,.F.,(7,5,
    5,5,5,7),(0.,0.217371021873,0.499993446132,0.691290474524,
    0.783265427476,1.),.UNSPECIFIED.);
#506 = CARTESIAN_POINT('',(1.,3.872983346207,-8.881784197001E-16));
#507 = CARTESIAN_POINT('',(1.,3.919876832614,-8.881784197001E-16));
#508 = CARTESIAN_POINT('',(1.,3.966737827784,6.18456895063E-03));
#509 = CARTESIAN_POINT('',(1.,4.012484685584,1.855924833997E-02));
#510 = CARTESIAN_POINT('',(1.,4.056047768302,3.689218592082E-02));
#511 = CARTESIAN_POINT('',(1.,4.096433903056,6.07286368625E-02));
#512 = CARTESIAN_POINT('',(1.,4.18006156024,0.126690631025));
#513 = CARTESIAN_POINT('',(1.,4.220537939838,0.17217194677));
#514 = CARTESIAN_POINT('',(1.,4.252323556205,0.224390449022));
#515 = CARTESIAN_POINT('',(1.,4.274015809426,0.281339779276));
#516 = CARTESIAN_POINT('',(1.,4.284857088926,0.340677585193));
#517 = CARTESIAN_POINT('',(1.,4.284857035601,0.44015357472));
#518 = CARTESIAN_POINT('',(1.,4.279890217172,0.480309231421));
#519 = CARTESIAN_POINT('',(1.,4.269955304264,0.519727715471));
#520 = CARTESIAN_POINT('',(1.,4.255208527003,0.557678665948));
#521 = CARTESIAN_POINT('',(1.,4.235949779609,0.593478652509));
#522 = CARTESIAN_POINT('',(1.,4.201386473338,0.642419498437));
#523 = CARTESIAN_POINT('',(1.,4.18922001046,0.657674963563));
#524 = CARTESIAN_POINT('',(1.,4.176157175291,0.672228737121));
#525 = CARTESIAN_POINT('',(1.,4.162251438288,0.686019687944));
#526 = CARTESIAN_POINT('',(1.,4.147561933231,0.69899221539));
#527 = CARTESIAN_POINT('',(1.,4.095844121335,0.739618825787));
#528 = CARTESIAN_POINT('',(1.,4.055538935471,0.763321605015));
#529 = CARTESIAN_POINT('',(1.,4.012083975314,0.781548982261));
#530 = CARTESIAN_POINT('',(1.,3.966464202697,0.793851485025));
#531 = CARTESIAN_POINT('',(1.,3.919739940277,0.8));
#532 = CARTESIAN_POINT('',(1.,3.872983346207,0.8));
#533 = ORIENTED_EDGE('',*,*,#534,.T.);
#534 = EDGE_CURVE('',#503,#535,#537,.T.);
#535 = VERTEX_POINT('',#536);
#536 = CARTESIAN_POINT('',(1.,3.872983346207,5.));
#537 = LINE('',#538,#539);
#538 = CARTESIAN_POINT('',(1.,3.872983346207,0.8));
#539 = VECTOR('',#540,1.);
#540 = DIRECTION('',(0.,2.22044604925E-16,1.));
#541 = ORIENTED_EDGE('',*,*,#542,.T.);
#542 = EDGE_CURVE('',#535,#66,#543,.T.);
#543 = LINE('',#544,#545);
#544 = CARTESIAN_POINT('',(1.,7.,5.));
#545 = VECTOR('',#546,1.);
#546 = DIRECTION('',(0.,-1.,0.));
#547 = ORIENTED_EDGE('',*,*,#65,.T.);
#548 = PLANE('',#549);
#549 = AXIS2_PLACEMENT_3D('',#550,#551,#552);
#550 = CARTESIAN_POINT('',(1.,7.,0.));
#551 = DIRECTION('',(1.,0.,0.));
#552 = DIRECTION('',(0.,-1.,0.));
#553 = ADVANCED_FACE('',(#554),#604,.F.);
#554 = FACE_BOUND('',#555,.F.);
#555 = EDGE_LOOP('',(#556,#564,#596,#602,#603));
#556 = ORIENTED_EDGE('',*,*,#557,.F.);
#557 = EDGE_CURVE('',#558,#125,#560,.T.);
#558 = VERTEX_POINT('',#559);
#559 = CARTESIAN_POINT('',(-1.,-3.872983346207,4.299875284949E-16));
#560 = LINE('',#561,#562);
#561 = CARTESIAN_POINT('',(-1.,-7.,0.));
#562 = VECTOR('',#563,1.);
#563 = DIRECTION('',(0.,1.,0.));
#564 = ORIENTED_EDGE('',*,*,#565,.T.);
#565 = EDGE_CURVE('',#558,#566,#568,.T.);
#566 = VERTEX_POINT('',#567);
#567 = CARTESIAN_POINT('',(-1.,-3.872983346207,0.8));
#568 = B_SPLINE_CURVE_WITH_KNOTS('',6,(#569,#570,#571,#572,#573,#574,
    #575,#576,#577,#578,#579,#580,#581,#582,#583,#584,#585,#586,#587,
    #588,#589,#590,#591,#592,#593,#594,#595),.UNSPECIFIED.,.F.,.F.,(7,5,
    5,5,5,7),(0.,0.217371021873,0.499993446131,0.691290474527,
    0.783265427479,1.),.UNSPECIFIED.);
#569 = CARTESIAN_POINT('',(-1.,-3.872983346207,8.881784197001E-16));
#570 = CARTESIAN_POINT('',(-1.,-3.919876832614,8.881784197001E-16));
#571 = CARTESIAN_POINT('',(-1.,-3.966737827784,6.184568950634E-03));
#572 = CARTESIAN_POINT('',(-1.,-4.012484685584,1.855924833997E-02));
#573 = CARTESIAN_POINT('',(-1.,-4.056047768302,3.689218592082E-02));
#574 = CARTESIAN_POINT('',(-1.,-4.096433903056,6.07286368625E-02));
#575 = CARTESIAN_POINT('',(-1.,-4.18006156024,0.126690631025));
#576 = CARTESIAN_POINT('',(-1.,-4.220537939838,0.17217194677));
#577 = CARTESIAN_POINT('',(-1.,-4.252323556205,0.224390449022));
#578 = CARTESIAN_POINT('',(-1.,-4.274015809426,0.281339779276));
#579 = CARTESIAN_POINT('',(-1.,-4.284857088926,0.340677585193));
#580 = CARTESIAN_POINT('',(-1.,-4.284857035601,0.440153574721));
#581 = CARTESIAN_POINT('',(-1.,-4.279890217172,0.480309231422));
#582 = CARTESIAN_POINT('',(-1.,-4.269955304264,0.519727715472));
#583 = CARTESIAN_POINT('',(-1.,-4.255208527002,0.55767866595));
#584 = CARTESIAN_POINT('',(-1.,-4.235949779607,0.593478652511));
#585 = CARTESIAN_POINT('',(-1.,-4.201386473336,0.64241949844));
#586 = CARTESIAN_POINT('',(-1.,-4.189220010458,0.657674963565));
#587 = CARTESIAN_POINT('',(-1.,-4.176157175289,0.672228737124));
#588 = CARTESIAN_POINT('',(-1.,-4.162251438285,0.686019687946));
#589 = CARTESIAN_POINT('',(-1.,-4.147561933229,0.698992215392));
#590 = CARTESIAN_POINT('',(-1.,-4.095844121332,0.739618825788));
#591 = CARTESIAN_POINT('',(-1.,-4.055538935469,0.763321605015));
#592 = CARTESIAN_POINT('',(-1.,-4.012083975313,0.781548982261));
#593 = CARTESIAN_POINT('',(-1.,-3.966464202696,0.793851485025));
#594 = CARTESIAN_POINT('',(-1.,-3.919739940276,0.8));
#595 = CARTESIAN_POINT('',(-1.,-3.872983346207,0.8));
#596 = ORIENTED_EDGE('',*,*,#597,.T.);
#597 = EDGE_CURVE('',#566,#478,#598,.T.);
#598 = LINE('',#599,#600);
#599 = CARTESIAN_POINT('',(-1.,-3.872983346207,0.8));
#600 = VECTOR('',#601,1.);
#601 = DIRECTION('',(0.,2.22044604925E-16,1.));
#602 = ORIENTED_EDGE('',*,*,#477,.T.);
#603 = ORIENTED_EDGE('',*,*,#133,.T.);
#604 = PLANE('',#605);
#605 = AXIS2_PLACEMENT_3D('',#606,#607,#608);
#606 = CARTESIAN_POINT('',(-1.,-7.,0.));
#607 = DIRECTION('',(-1.,0.,0.));
#608 = DIRECTION('',(0.,1.,0.));
#609 = ADVANCED_FACE('',(#610),#629,.F.);
#610 = FACE_BOUND('',#611,.F.);
#611 = EDGE_LOOP('',(#612,#620,#621,#622));
#612 = ORIENTED_EDGE('',*,*,#613,.F.);
#613 = EDGE_CURVE('',#74,#614,#616,.T.);
#614 = VERTEX_POINT('',#615);
#615 = CARTESIAN_POINT('',(-1.,3.872983346207,5.));
#616 = LINE('',#617,#618);
#617 = CARTESIAN_POINT('',(-1.,1.,5.));
#618 = VECTOR('',#619,1.);
#619 = DIRECTION('',(0.,1.,0.));
#620 = ORIENTED_EDGE('',*,*,#73,.T.);
#621 = ORIENTED_EDGE('',*,*,#542,.F.);
#622 = ORIENTED_EDGE('',*,*,#623,.T.);
#623 = EDGE_CURVE('',#535,#614,#624,.T.);
#624 = CIRCLE('',#625,4.);
#625 = AXIS2_PLACEMENT_3D('',#626,#627,#628);
#626 = CARTESIAN_POINT('',(0.,1.110223024625E-15,5.));
#627 = DIRECTION('',(-0.,2.22044604925E-16,1.));
#628 = DIRECTION('',(1.,0.,0.));
#629 = PLANE('',#630);
#630 = AXIS2_PLACEMENT_3D('',#631,#632,#633);
#631 = CARTESIAN_POINT('',(0.,0.,5.));
#632 = DIRECTION('',(0.,0.,1.));
#633 = DIRECTION('',(1.,0.,0.));
#634 = ADVANCED_FACE('',(#635),#654,.T.);
#635 = FACE_BOUND('',#636,.T.);
#636 = EDGE_LOOP('',(#637,#638,#647,#653));
#637 = ORIENTED_EDGE('',*,*,#557,.F.);
#638 = ORIENTED_EDGE('',*,*,#639,.T.);
#639 = EDGE_CURVE('',#558,#640,#642,.T.);
#640 = VERTEX_POINT('',#641);
#641 = CARTESIAN_POINT('',(-3.872983346207,-1.,1.110223024625E-16));
#642 = CIRCLE('',#643,4.);
#643 = AXIS2_PLACEMENT_3D('',#644,#645,#646);
#644 = CARTESIAN_POINT('',(0.,0.,0.));
#645 = DIRECTION('',(0.,-2.22044604925E-16,-1.));
#646 = DIRECTION('',(1.,0.,0.));
#647 = ORIENTED_EDGE('',*,*,#648,.F.);
#648 = EDGE_CURVE('',#117,#640,#649,.T.);
#649 = LINE('',#650,#651);
#650 = CARTESIAN_POINT('',(-1.,-1.,0.));
#651 = VECTOR('',#652,1.);
#652 = DIRECTION('',(-1.,0.,0.));
#653 = ORIENTED_EDGE('',*,*,#124,.F.);
#654 = PLANE('',#655);
#655 = AXIS2_PLACEMENT_3D('',#656,#657,#658);
#656 = CARTESIAN_POINT('',(0.,0.,0.));
#657 = DIRECTION('',(-0.,-2.22044604925E-16,-1.));
#658 = DIRECTION('',(1.,0.,0.));
#659 = ADVANCED_FACE('',(#660),#710,.F.);
#660 = FACE_BOUND('',#661,.F.);
#661 = EDGE_LOOP('',(#662,#670,#671,#672,#680));
#662 = ORIENTED_EDGE('',*,*,#663,.F.);
#663 = EDGE_CURVE('',#83,#664,#666,.T.);
#664 = VERTEX_POINT('',#665);
#665 = CARTESIAN_POINT('',(-1.,3.872983346207,-4.299875284949E-16));
#666 = LINE('',#667,#668);
#667 = CARTESIAN_POINT('',(-1.,1.,0.));
#668 = VECTOR('',#669,1.);
#669 = DIRECTION('',(0.,1.,0.));
#670 = ORIENTED_EDGE('',*,*,#82,.F.);
#671 = ORIENTED_EDGE('',*,*,#613,.T.);
#672 = ORIENTED_EDGE('',*,*,#673,.F.);
#673 = EDGE_CURVE('',#674,#614,#676,.T.);
#674 = VERTEX_POINT('',#675);
#675 = CARTESIAN_POINT('',(-1.,3.872983346207,0.8));
#676 = LINE('',#677,#678);
#677 = CARTESIAN_POINT('',(-1.,3.872983346207,0.8));
#678 = VECTOR('',#679,1.);
#679 = DIRECTION('',(0.,2.22044604925E-16,1.));
#680 = ORIENTED_EDGE('',*,*,#681,.F.);
#681 = EDGE_CURVE('',#664,#674,#682,.T.);
#682 = B_SPLINE_CURVE_WITH_KNOTS('',6,(#683,#684,#685,#686,#687,#688,
    #689,#690,#691,#692,#693,#694,#695,#696,#697,#698,#699,#700,#701,
    #702,#703,#704,#705,#706,#707,#708,#709),.UNSPECIFIED.,.F.,.F.,(7,5,
    5,5,5,7),(0.,0.217371021873,0.499993446132,0.691290474524,
    0.783265427476,1.),.UNSPECIFIED.);
#683 = CARTESIAN_POINT('',(-1.,3.872983346207,-8.881784197001E-16));
#684 = CARTESIAN_POINT('',(-1.,3.919876832614,-8.881784197001E-16));
#685 = CARTESIAN_POINT('',(-1.,3.966737827784,6.184568950631E-03));
#686 = CARTESIAN_POINT('',(-1.,4.012484685584,1.855924833997E-02));
#687 = CARTESIAN_POINT('',(-1.,4.056047768302,3.689218592082E-02));
#688 = CARTESIAN_POINT('',(-1.,4.096433903056,6.07286368625E-02));
#689 = CARTESIAN_POINT('',(-1.,4.18006156024,0.126690631025));
#690 = CARTESIAN_POINT('',(-1.,4.220537939838,0.17217194677));
#691 = CARTESIAN_POINT('',(-1.,4.252323556205,0.224390449022));
#692 = CARTESIAN_POINT('',(-1.,4.274015809426,0.281339779276));
#693 = CARTESIAN_POINT('',(-1.,4.284857088926,0.340677585193));
#694 = CARTESIAN_POINT('',(-1.,4.284857035601,0.44015357472));
#695 = CARTESIAN_POINT('',(-1.,4.279890217172,0.480309231421));
#696 = CARTESIAN_POINT('',(-1.,4.269955304264,0.519727715471));
#697 = CARTESIAN_POINT('',(-1.,4.255208527003,0.557678665948));
#698 = CARTESIAN_POINT('',(-1.,4.235949779609,0.593478652509));
#699 = CARTESIAN_POINT('',(-1.,4.201386473338,0.642419498437));
#700 = CARTESIAN_POINT('',(-1.,4.18922001046,0.657674963563));
#701 = CARTESIAN_POINT('',(-1.,4.176157175291,0.672228737121));
#702 = CARTESIAN_POINT('',(-1.,4.162251438288,0.686019687944));
#703 = CARTESIAN_POINT('',(-1.,4.147561933231,0.69899221539));
#704 = CARTESIAN_POINT('',(-1.,4.095844121335,0.739618825787));
#705 = CARTESIAN_POINT('',(-1.,4.055538935471,0.763321605015));
#706 = CARTESIAN_POINT('',(-1.,4.012083975314,0.781548982261));
#707 = CARTESIAN_POINT('',(-1.,3.966464202697,0.793851485025));
#708 = CARTESIAN_POINT('',(-1.,3.919739940277,0.8));
#709 = CARTESIAN_POINT('',(-1.,3.872983346207,0.8));
#710 = PLANE('',#711);
#711 = AXIS2_PLACEMENT_3D('',#712,#713,#714);
#712 = CARTESIAN_POINT('',(-1.,1.,0.));
#713 = DIRECTION('',(-1.,0.,0.));
#714 = DIRECTION('',(0.,1.,0.));
#715 = ADVANCED_FACE('',(#716),#766,.F.);
#716 = FACE_BOUND('',#717,.F.);
#717 = EDGE_LOOP('',(#718,#719,#720,#728,#736));
#718 = ORIENTED_EDGE('',*,*,#648,.F.);
#719 = ORIENTED_EDGE('',*,*,#116,.F.);
#720 = ORIENTED_EDGE('',*,*,#721,.T.);
#721 = EDGE_CURVE('',#108,#722,#724,.T.);
#722 = VERTEX_POINT('',#723);
#723 = CARTESIAN_POINT('',(-3.872983346207,-1.,5.));
#724 = LINE('',#725,#726);
#725 = CARTESIAN_POINT('',(-1.,-1.,5.));
#726 = VECTOR('',#727,1.);
#727 = DIRECTION('',(-1.,0.,0.));
#728 = ORIENTED_EDGE('',*,*,#729,.F.);
#729 = EDGE_CURVE('',#730,#722,#732,.T.);
#730 = VERTEX_POINT('',#731);
#731 = CARTESIAN_POINT('',(-3.872983346207,-1.,0.8));
#732 = LINE('',#733,#734);
#733 = CARTESIAN_POINT('',(-3.872983346207,-1.,0.8));
#734 = VECTOR('',#735,1.);
#735 = DIRECTION('',(0.,2.22044604925E-16,1.));
#736 = ORIENTED_EDGE('',*,*,#737,.F.);
#737 = EDGE_CURVE('',#640,#730,#738,.T.);
#738 = B_SPLINE_CURVE_WITH_KNOTS('',6,(#739,#740,#741,#742,#743,#744,
    #745,#746,#747,#748,#749,#750,#751,#752,#753,#754,#755,#756,#757,
    #758,#759,#760,#761,#762,#763,#764,#765),.UNSPECIFIED.,.F.,.F.,(7,5,
    5,5,5,7),(0.,0.217371021873,0.499993446132,0.691290474524,
    0.783265427476,1.),.UNSPECIFIED.);
#739 = CARTESIAN_POINT('',(-3.872983346207,-1.,2.22044604925E-16));
#740 = CARTESIAN_POINT('',(-3.919876832614,-1.,2.22044604925E-16));
#741 = CARTESIAN_POINT('',(-3.966737827784,-1.,6.184568950633E-03));
#742 = CARTESIAN_POINT('',(-4.012484685584,-1.,1.855924833997E-02));
#743 = CARTESIAN_POINT('',(-4.056047768302,-1.,3.689218592082E-02));
#744 = CARTESIAN_POINT('',(-4.096433903056,-1.,6.07286368625E-02));
#745 = CARTESIAN_POINT('',(-4.18006156024,-1.,0.126690631025));
#746 = CARTESIAN_POINT('',(-4.220537939838,-1.,0.17217194677));
#747 = CARTESIAN_POINT('',(-4.252323556205,-1.,0.224390449022));
#748 = CARTESIAN_POINT('',(-4.274015809426,-1.,0.281339779276));
#749 = CARTESIAN_POINT('',(-4.284857088926,-1.,0.340677585193));
#750 = CARTESIAN_POINT('',(-4.284857035601,-1.,0.44015357472));
#751 = CARTESIAN_POINT('',(-4.279890217172,-1.,0.480309231421));
#752 = CARTESIAN_POINT('',(-4.269955304264,-1.,0.519727715471));
#753 = CARTESIAN_POINT('',(-4.255208527003,-1.,0.557678665948));
#754 = CARTESIAN_POINT('',(-4.235949779609,-1.,0.593478652509));
#755 = CARTESIAN_POINT('',(-4.201386473338,-1.,0.642419498437));
#756 = CARTESIAN_POINT('',(-4.18922001046,-1.,0.657674963563));
#757 = CARTESIAN_POINT('',(-4.176157175291,-1.,0.672228737121));
#758 = CARTESIAN_POINT('',(-4.162251438288,-1.,0.686019687944));
#759 = CARTESIAN_POINT('',(-4.147561933231,-1.,0.69899221539));
#760 = CARTESIAN_POINT('',(-4.095844121335,-1.,0.739618825787));
#761 = CARTESIAN_POINT('',(-4.055538935471,-1.,0.763321605015));
#762 = CARTESIAN_POINT('',(-4.012083975314,-1.,0.781548982261));
#763 = CARTESIAN_POINT('',(-3.966464202697,-1.,0.793851485025));
#764 = CARTESIAN_POINT('',(-3.919739940277,-1.,0.8));
#765 = CARTESIAN_POINT('',(-3.872983346207,-1.,0.8));
#766 = PLANE('',#767);
#767 = AXIS2_PLACEMENT_3D('',#768,#769,#770);
#768 = CARTESIAN_POINT('',(-1.,-1.,0.));
#769 = DIRECTION('',(0.,-1.,0.));
#770 = DIRECTION('',(-1.,0.,0.));
#771 = ADVANCED_FACE('',(#772),#791,.T.);
#772 = FACE_BOUND('',#773,.T.);
#773 = EDGE_LOOP('',(#774,#783,#784,#785));
#774 = ORIENTED_EDGE('',*,*,#775,.T.);
#775 = EDGE_CURVE('',#776,#664,#778,.T.);
#776 = VERTEX_POINT('',#777);
#777 = CARTESIAN_POINT('',(-3.872983346207,1.,-1.110223024625E-16));
#778 = CIRCLE('',#779,4.);
#779 = AXIS2_PLACEMENT_3D('',#780,#781,#782);
#780 = CARTESIAN_POINT('',(0.,0.,0.));
#781 = DIRECTION('',(0.,-2.22044604925E-16,-1.));
#782 = DIRECTION('',(1.,0.,0.));
#783 = ORIENTED_EDGE('',*,*,#663,.F.);
#784 = ORIENTED_EDGE('',*,*,#90,.F.);
#785 = ORIENTED_EDGE('',*,*,#786,.F.);
#786 = EDGE_CURVE('',#776,#91,#787,.T.);
#787 = LINE('',#788,#789);
#788 = CARTESIAN_POINT('',(-7.,1.,0.));
#789 = VECTOR('',#790,1.);
#790 = DIRECTION('',(1.,0.,0.));
#791 = PLANE('',#792);
#792 = AXIS2_PLACEMENT_3D('',#793,#794,#795);
#793 = CARTESIAN_POINT('',(0.,0.,0.));
#794 = DIRECTION('',(-0.,-2.22044604925E-16,-1.));
#795 = DIRECTION('',(1.,0.,0.));
#796 = ADVANCED_FACE('',(#797),#816,.F.);
#797 = FACE_BOUND('',#798,.F.);
#798 = EDGE_LOOP('',(#799,#800,#808,#815));
#799 = ORIENTED_EDGE('',*,*,#107,.T.);
#800 = ORIENTED_EDGE('',*,*,#801,.F.);
#801 = EDGE_CURVE('',#802,#100,#804,.T.);
#802 = VERTEX_POINT('',#803);
#803 = CARTESIAN_POINT('',(-3.872983346207,1.,5.));
#804 = LINE('',#805,#806);
#805 = CARTESIAN_POINT('',(-7.,1.,5.));
#806 = VECTOR('',#807,1.);
#807 = DIRECTION('',(1.,0.,0.));
#808 = ORIENTED_EDGE('',*,*,#809,.T.);
#809 = EDGE_CURVE('',#802,#722,#810,.T.);
#810 = CIRCLE('',#811,4.);
#811 = AXIS2_PLACEMENT_3D('',#812,#813,#814);
#812 = CARTESIAN_POINT('',(0.,1.110223024625E-15,5.));
#813 = DIRECTION('',(-0.,2.22044604925E-16,1.));
#814 = DIRECTION('',(1.,0.,0.));
#815 = ORIENTED_EDGE('',*,*,#721,.F.);
#816 = PLANE('',#817);
#817 = AXIS2_PLACEMENT_3D('',#818,#819,#820);
#818 = CARTESIAN_POINT('',(0.,0.,5.));
#819 = DIRECTION('',(0.,0.,1.));
#820 = DIRECTION('',(1.,0.,0.));
#821 = ADVANCED_FACE('',(#822),#865,.F.);
#822 = FACE_BOUND('',#823,.F.);
#823 = EDGE_LOOP('',(#824,#825,#857,#863,#864));
#824 = ORIENTED_EDGE('',*,*,#786,.F.);
#825 = ORIENTED_EDGE('',*,*,#826,.T.);
#826 = EDGE_CURVE('',#776,#827,#829,.T.);
#827 = VERTEX_POINT('',#828);
#828 = CARTESIAN_POINT('',(-3.872983346207,1.,0.8));
#829 = B_SPLINE_CURVE_WITH_KNOTS('',6,(#830,#831,#832,#833,#834,#835,
    #836,#837,#838,#839,#840,#841,#842,#843,#844,#845,#846,#847,#848,
    #849,#850,#851,#852,#853,#854,#855,#856),.UNSPECIFIED.,.F.,.F.,(7,5,
    5,5,5,7),(0.,0.217371021873,0.499993446131,0.691290474529,
    0.783265427481,1.),.UNSPECIFIED.);
#830 = CARTESIAN_POINT('',(-3.872983346207,1.,-2.22044604925E-16));
#831 = CARTESIAN_POINT('',(-3.919876832614,1.,-2.22044604925E-16));
#832 = CARTESIAN_POINT('',(-3.966737827784,1.,6.184568950634E-03));
#833 = CARTESIAN_POINT('',(-4.012484685584,1.,1.855924833997E-02));
#834 = CARTESIAN_POINT('',(-4.056047768302,1.,3.689218592082E-02));
#835 = CARTESIAN_POINT('',(-4.096433903056,1.,6.07286368625E-02));
#836 = CARTESIAN_POINT('',(-4.18006156024,1.,0.126690631025));
#837 = CARTESIAN_POINT('',(-4.220537939838,1.,0.17217194677));
#838 = CARTESIAN_POINT('',(-4.252323556205,1.,0.224390449022));
#839 = CARTESIAN_POINT('',(-4.274015809426,1.,0.281339779275));
#840 = CARTESIAN_POINT('',(-4.284857088926,1.,0.340677585193));
#841 = CARTESIAN_POINT('',(-4.284857035601,1.,0.440153574721));
#842 = CARTESIAN_POINT('',(-4.279890217172,1.,0.480309231423));
#843 = CARTESIAN_POINT('',(-4.269955304263,1.,0.519727715474));
#844 = CARTESIAN_POINT('',(-4.255208527002,1.,0.557678665953));
#845 = CARTESIAN_POINT('',(-4.235949779606,1.,0.593478652514));
#846 = CARTESIAN_POINT('',(-4.201386473334,1.,0.642419498442));
#847 = CARTESIAN_POINT('',(-4.189220010456,1.,0.657674963568));
#848 = CARTESIAN_POINT('',(-4.176157175286,1.,0.672228737126));
#849 = CARTESIAN_POINT('',(-4.162251438283,1.,0.686019687948));
#850 = CARTESIAN_POINT('',(-4.147561933226,1.,0.698992215394));
#851 = CARTESIAN_POINT('',(-4.09584412133,1.,0.739618825789));
#852 = CARTESIAN_POINT('',(-4.055538935467,1.,0.763321605016));
#853 = CARTESIAN_POINT('',(-4.012083975311,1.,0.781548982262));
#854 = CARTESIAN_POINT('',(-3.966464202695,1.,0.793851485025));
#855 = CARTESIAN_POINT('',(-3.919739940276,1.,0.8));
#856 = CARTESIAN_POINT('',(-3.872983346207,1.,0.8));
#857 = ORIENTED_EDGE('',*,*,#858,.T.);
#858 = EDGE_CURVE('',#827,#802,#859,.T.);
#859 = LINE('',#860,#861);
#860 = CARTESIAN_POINT('',(-3.872983346207,1.,0.8));
#861 = VECTOR('',#862,1.);
#862 = DIRECTION('',(0.,2.22044604925E-16,1.));
#863 = ORIENTED_EDGE('',*,*,#801,.T.);
#864 = ORIENTED_EDGE('',*,*,#99,.T.);
#865 = PLANE('',#866);
#866 = AXIS2_PLACEMENT_3D('',#867,#868,#869);
#867 = CARTESIAN_POINT('',(-7.,1.,0.));
#868 = DIRECTION('',(0.,1.,0.));
#869 = DIRECTION('',(1.,0.,0.));
#870 = ADVANCED_FACE('',(#871),#874,.T.);
#871 = FACE_BOUND('',#872,.F.);
#872 = EDGE_LOOP('',(#873));
#873 = ORIENTED_EDGE('',*,*,#201,.F.);
#874 = PLANE('',#875);
#875 = AXIS2_PLACEMENT_3D('',#876,#877,#878);
#876 = CARTESIAN_POINT('',(0.,2.153832667773E-15,9.7));
#877 = DIRECTION('',(-0.,-2.22044604925E-16,-1.));
#878 = DIRECTION('',(1.,0.,0.));
#879 = ADVANCED_FACE('',(#880),#939,.T.);
#880 = FACE_BOUND('',#881,.F.);
#881 = EDGE_LOOP('',(#882,#890,#891,#892,#899,#900,#901,#902,#909,#910,
    #911,#912,#919,#920,#921,#922,#929,#930,#931,#932));
#882 = ORIENTED_EDGE('',*,*,#883,.F.);
#883 = EDGE_CURVE('',#235,#884,#886,.T.);
#884 = VERTEX_POINT('',#885);
#885 = CARTESIAN_POINT('',(4.,2.153832667773E-15,9.7));
#886 = LINE('',#887,#888);
#887 = CARTESIAN_POINT('',(4.,1.7763568394E-16,0.8));
#888 = VECTOR('',#889,1.);
#889 = DIRECTION('',(0.,2.22044604925E-16,1.));
#890 = ORIENTED_EDGE('',*,*,#234,.F.);
#891 = ORIENTED_EDGE('',*,*,#298,.F.);
#892 = ORIENTED_EDGE('',*,*,#893,.T.);
#893 = EDGE_CURVE('',#267,#406,#894,.T.);
#894 = CIRCLE('',#895,4.);
#895 = AXIS2_PLACEMENT_3D('',#896,#897,#898);
#896 = CARTESIAN_POINT('',(0.,1.7763568394E-16,0.8));
#897 = DIRECTION('',(0.,-2.22044604925E-16,-1.));
#898 = DIRECTION('',(1.,0.,0.));
#899 = ORIENTED_EDGE('',*,*,#405,.T.);
#900 = ORIENTED_EDGE('',*,*,#485,.F.);
#901 = ORIENTED_EDGE('',*,*,#597,.F.);
#902 = ORIENTED_EDGE('',*,*,#903,.T.);
#903 = EDGE_CURVE('',#566,#730,#904,.T.);
#904 = CIRCLE('',#905,4.);
#905 = AXIS2_PLACEMENT_3D('',#906,#907,#908);
#906 = CARTESIAN_POINT('',(0.,1.7763568394E-16,0.8));
#907 = DIRECTION('',(0.,-2.22044604925E-16,-1.));
#908 = DIRECTION('',(1.,0.,0.));
#909 = ORIENTED_EDGE('',*,*,#729,.T.);
#910 = ORIENTED_EDGE('',*,*,#809,.F.);
#911 = ORIENTED_EDGE('',*,*,#858,.F.);
#912 = ORIENTED_EDGE('',*,*,#913,.T.);
#913 = EDGE_CURVE('',#827,#674,#914,.T.);
#914 = CIRCLE('',#915,4.);
#915 = AXIS2_PLACEMENT_3D('',#916,#917,#918);
#916 = CARTESIAN_POINT('',(0.,1.7763568394E-16,0.8));
#917 = DIRECTION('',(0.,-2.22044604925E-16,-1.));
#918 = DIRECTION('',(1.,0.,0.));
#919 = ORIENTED_EDGE('',*,*,#673,.T.);
#920 = ORIENTED_EDGE('',*,*,#623,.F.);
#921 = ORIENTED_EDGE('',*,*,#534,.F.);
#922 = ORIENTED_EDGE('',*,*,#923,.T.);
#923 = EDGE_CURVE('',#503,#350,#924,.T.);
#924 = CIRCLE('',#925,4.);
#925 = AXIS2_PLACEMENT_3D('',#926,#927,#928);
#926 = CARTESIAN_POINT('',(0.,1.7763568394E-16,0.8));
#927 = DIRECTION('',(0.,-2.22044604925E-16,-1.));
#928 = DIRECTION('',(1.,0.,0.));
#929 = ORIENTED_EDGE('',*,*,#349,.T.);
#930 = ORIENTED_EDGE('',*,*,#243,.F.);
#931 = ORIENTED_EDGE('',*,*,#883,.T.);
#932 = ORIENTED_EDGE('',*,*,#933,.F.);
#933 = EDGE_CURVE('',#884,#884,#934,.T.);
#934 = CIRCLE('',#935,4.);
#935 = AXIS2_PLACEMENT_3D('',#936,#937,#938);
#936 = CARTESIAN_POINT('',(0.,2.153832667773E-15,9.7));
#937 = DIRECTION('',(0.,-2.22044604925E-16,-1.));
#938 = DIRECTION('',(1.,0.,0.));
#939 = CYLINDRICAL_SURFACE('',#940,4.);
#940 = AXIS2_PLACEMENT_3D('',#941,#942,#943);
#941 = CARTESIAN_POINT('',(0.,1.7763568394E-16,0.8));
#942 = DIRECTION('',(0.,2.22044604925E-16,1.));
#943 = DIRECTION('',(1.,0.,0.));
#944 = ADVANCED_FACE('',(#945),#951,.T.);
#945 = FACE_BOUND('',#946,.F.);
#946 = EDGE_LOOP('',(#947,#948,#949,#950));
#947 = ORIENTED_EDGE('',*,*,#266,.F.);
#948 = ORIENTED_EDGE('',*,*,#315,.T.);
#949 = ORIENTED_EDGE('',*,*,#413,.T.);
#950 = ORIENTED_EDGE('',*,*,#893,.F.);
#951 = TOROIDAL_SURFACE('',#952,4.,0.4);
#952 = AXIS2_PLACEMENT_3D('',#953,#954,#955);
#953 = CARTESIAN_POINT('',(0.,8.881784197001E-17,0.4));
#954 = DIRECTION('',(0.,2.22044604925E-16,1.));
#955 = DIRECTION('',(1.,0.,0.));
#956 = ADVANCED_FACE('',(#957),#963,.T.);
#957 = FACE_BOUND('',#958,.F.);
#958 = EDGE_LOOP('',(#959,#960,#961,#962));
#959 = ORIENTED_EDGE('',*,*,#451,.T.);
#960 = ORIENTED_EDGE('',*,*,#357,.T.);
#961 = ORIENTED_EDGE('',*,*,#923,.F.);
#962 = ORIENTED_EDGE('',*,*,#502,.F.);
#963 = TOROIDAL_SURFACE('',#964,4.,0.4);
#964 = AXIS2_PLACEMENT_3D('',#965,#966,#967);
#965 = CARTESIAN_POINT('',(0.,8.881784197001E-17,0.4));
#966 = DIRECTION('',(0.,2.22044604925E-16,1.));
#967 = DIRECTION('',(1.,0.,0.));
#968 = ADVANCED_FACE('',(#969),#975,.T.);
#969 = FACE_BOUND('',#970,.F.);
#970 = EDGE_LOOP('',(#971,#972,#973,#974));
#971 = ORIENTED_EDGE('',*,*,#565,.F.);
#972 = ORIENTED_EDGE('',*,*,#639,.T.);
#973 = ORIENTED_EDGE('',*,*,#737,.T.);
#974 = ORIENTED_EDGE('',*,*,#903,.F.);
#975 = TOROIDAL_SURFACE('',#976,4.,0.4);
#976 = AXIS2_PLACEMENT_3D('',#977,#978,#979);
#977 = CARTESIAN_POINT('',(0.,8.881784197001E-17,0.4));
#978 = DIRECTION('',(0.,2.22044604925E-16,1.));
#979 = DIRECTION('',(1.,0.,0.));
#980 = ADVANCED_FACE('',(#981),#987,.T.);
#981 = FACE_BOUND('',#982,.F.);
#982 = EDGE_LOOP('',(#983,#984,#985,#986));
#983 = ORIENTED_EDGE('',*,*,#775,.T.);
#984 = ORIENTED_EDGE('',*,*,#681,.T.);
#985 = ORIENTED_EDGE('',*,*,#913,.F.);
#986 = ORIENTED_EDGE('',*,*,#826,.F.);
#987 = TOROIDAL_SURFACE('',#988,4.,0.4);
#988 = AXIS2_PLACEMENT_3D('',#989,#990,#991);
#989 = CARTESIAN_POINT('',(0.,8.881784197001E-17,0.4));
#990 = DIRECTION('',(0.,2.22044604925E-16,1.));
#991 = DIRECTION('',(1.,0.,0.));
#992 = ADVANCED_FACE('',(#993),#1013,.T.);
#993 = FACE_BOUND('',#994,.F.);
#994 = EDGE_LOOP('',(#995,#1004,#1005,#1006));
#995 = ORIENTED_EDGE('',*,*,#996,.F.);
#996 = EDGE_CURVE('',#884,#997,#999,.T.);
#997 = VERTEX_POINT('',#998);
#998 = CARTESIAN_POINT('',(3.7,2.22044604925E-15,10.));
#999 = CIRCLE('',#1000,0.3);
#1000 = AXIS2_PLACEMENT_3D('',#1001,#1002,#1003);
#1001 = CARTESIAN_POINT('',(3.7,2.153832667773E-15,9.7));
#1002 = DIRECTION('',(0.,-1.,2.22044604925E-16));
#1003 = DIRECTION('',(1.,0.,0.));
#1004 = ORIENTED_EDGE('',*,*,#933,.F.);
#1005 = ORIENTED_EDGE('',*,*,#996,.T.);
#1006 = ORIENTED_EDGE('',*,*,#1007,.T.);
#1007 = EDGE_CURVE('',#997,#997,#1008,.T.);
#1008 = CIRCLE('',#1009,3.7);
#1009 = AXIS2_PLACEMENT_3D('',#1010,#1011,#1012);
#1010 = CARTESIAN_POINT('',(0.,2.22044604925E-15,10.));
#1011 = DIRECTION('',(0.,-2.22044604925E-16,-1.));
#1012 = DIRECTION('',(1.,0.,0.));
#1013 = TOROIDAL_SURFACE('',#1014,3.7,0.3);
#1014 = AXIS2_PLACEMENT_3D('',#1015,#1016,#1017);
#1015 = CARTESIAN_POINT('',(0.,2.153832667773E-15,9.7));
#1016 = DIRECTION('',(0.,2.22044604925E-16,1.));
#1017 = DIRECTION('',(1.,0.,0.));
#1018 = ADVANCED_FACE('',(#1019),#1022,.F.);
#1019 = FACE_BOUND('',#1020,.F.);
#1020 = EDGE_LOOP('',(#1021));
#1021 = ORIENTED_EDGE('',*,*,#1007,.T.);
#1022 = PLANE('',#1023);
#1023 = AXIS2_PLACEMENT_3D('',#1024,#1025,#1026);
#1024 = CARTESIAN_POINT('',(0.,2.22044604925E-15,10.));
#1025 = DIRECTION('',(-0.,-2.22044604925E-16,-1.));
#1026 = DIRECTION('',(1.,0.,0.));
#1027 = ( GEOMETRIC_REPRESENTATION_CONTEXT(3) 
GLOBAL_UNCERTAINTY_ASSIGNED_CONTEXT((#1031)) 
GLOBAL_UNIT_ASSIGNED_CONTEXT((#1028,#1029,#1030)) REPRESENTATION_CONTEXT
('Context #1','3D Context with UNIT and UNCERTAINTY') );
#1028 = ( LENGTH_UNIT() NAMED_UNIT(*) SI_UNIT(.MILLI.,.METRE.) );
#1029 = ( NAMED_UNIT(*) PLANE_ANGLE_UNIT() SI_UNIT($,.RADIAN.) );
#1030 = ( NAMED_UNIT(*) SI_UNIT($,.STERADIAN.) SOLID_ANGLE_UNIT() );
#1031 = UNCERTAINTY_MEASURE_WITH_UNIT(LENGTH_MEASURE(2.E-07),#1028,
  'distance_accuracy_value','confusion accuracy');
#1032 = PRODUCT_RELATED_PRODUCT_CATEGORY('part',$,(#7));
#1033 = MECHANICAL_DESIGN_GEOMETRIC_PRESENTATION_REPRESENTATION('',(
    #1034),#1027);
#1034 = STYLED_ITEM('color',(#1035),#15);
#1035 = PRESENTATION_STYLE_ASSIGNMENT((#1036,#1042));
#1036 = SURFACE_STYLE_USAGE(.BOTH.,#1037);
#1037 = SURFACE_SIDE_STYLE('',(#1038));
#1038 = SURFACE_STYLE_FILL_AREA(#1039);
#1039 = FILL_AREA_STYLE('',(#1040));
#1040 = FILL_AREA_STYLE_COLOUR('',#1041);
#1041 = COLOUR_RGB('',0.678431390124,0.709803936702,0.741176476869);
#1042 = CURVE_STYLE('',#1043,POSITIVE_LENGTH_MEASURE(0.1),#1044);
#1043 = DRAUGHTING_PRE_DEFINED_CURVE_FONT('continuous');
#1044 = COLOUR_RGB('',9.803921802644E-02,9.803921802644E-02,
  9.803921802644E-02);
ENDSEC;
END-ISO-10303-21;
